<mxfile host="app.diagrams.net" modified="2023-11-06T10:11:06.347Z" agent="Mozilla/5.0 (Macintosh; Intel Mac OS X 10_15_7) AppleWebKit/537.36 (KHTML, like Gecko) Chrome/118.0.0.0 Safari/537.36" etag="AqRahMurT-gEklQH7m1w" version="21.5.2" type="github">
  <diagram name="ページ1" id="UGfDnDuX55T3g2mXqe9Y">
    <mxGraphModel dx="830" dy="539" grid="1" gridSize="10" guides="1" tooltips="1" connect="1" arrows="1" fold="1" page="1" pageScale="1" pageWidth="413" pageHeight="583" math="0" shadow="0">
      <root>
        <mxCell id="0" />
        <mxCell id="1" parent="0" />
        <mxCell id="YsaXzggqGih45ImEyi3_-1" value="" style="rounded=0;whiteSpace=wrap;html=1;" vertex="1" parent="1">
          <mxGeometry x="150" y="290" width="120" height="60" as="geometry" />
        </mxCell>
        <mxCell id="YsaXzggqGih45ImEyi3_-3" style="edgeStyle=orthogonalEdgeStyle;rounded=0;orthogonalLoop=1;jettySize=auto;html=1;" edge="1" parent="1" source="YsaXzggqGih45ImEyi3_-2" target="YsaXzggqGih45ImEyi3_-1">
          <mxGeometry relative="1" as="geometry" />
        </mxCell>
        <mxCell id="YsaXzggqGih45ImEyi3_-2" value="" style="rounded=1;whiteSpace=wrap;html=1;" vertex="1" parent="1">
          <mxGeometry x="150" y="100" width="120" height="40" as="geometry" />
        </mxCell>
      </root>
    </mxGraphModel>
  </diagram>
</mxfile>
